<?xml version="1.0" encoding="UTF-8" standalone="no"?>
<svg width="117px" height="31px" viewBox="0 0 117 31" version="1.1" xmlns="http://www.w3.org/2000/svg" xmlns:xlink="http://www.w3.org/1999/xlink" xmlns:sketch="http://www.bohemiancoding.com/sketch/ns">
    <title>logo-bolser-small</title>
    <g id="Page-1" stroke="none" stroke-width="1" fill="none" fill-rule="evenodd" sketch:type="MSPage">
        <g id="logo-bolser-small" sketch:type="MSArtboardGroup">
            <path d="M3.2988913,6.15010938 C3.2988913,5.07528125 3.12894071,4.36010156 2.78950198,4.00384375 C2.44936957,3.64807031 1.8354664,3.4700625 0.948254941,3.4700625 L0.0536442688,3.4700625 L0.0536442688,0.179945313 L9.39422134,0.179945313 L9.39422134,12.7959766 C10.3094111,11.3002266 11.3217154,10.1997266 12.4315968,9.49496094 C13.5407846,8.79067969 14.809749,8.43829688 16.2384901,8.43829688 C18.7766502,8.43829688 20.7841482,9.44046875 22.2612154,11.4450547 C23.7382826,13.4496406 24.476585,16.1953203 24.476585,19.6813672 C24.476585,23.3425156 23.7241779,26.1237969 22.2195949,28.0266641 C20.7145494,29.9305 18.5128221,30.8818125 15.614413,30.8818125 C14.1165356,30.8818125 12.7990138,30.5730234 11.6618478,29.9556875 C10.5246818,29.3383516 9.56764032,28.4119844 8.79118577,27.1773125 L6.96034387,30.2937813 L3.2988913,30.2937813 L3.2988913,6.15010938 L3.2988913,6.15010938 Z M9.47746245,19.8126328 C9.47746245,22.3115234 9.83123715,24.1555391 10.5385553,25.3471016 C11.2458735,26.5386641 12.3411877,27.1337188 13.8254229,27.1337188 C15.1151976,27.1337188 16.0893498,26.5163828 16.7483419,25.2817109 C17.4068715,24.0465547 17.7363676,22.2236094 17.7363676,19.8126328 C17.7363676,17.2841953 17.4036344,15.4254063 16.738168,14.2340859 C16.0722391,13.0430078 15.0319565,12.4474688 13.6175514,12.4474688 C12.1888103,12.4474688 11.1418221,13.039375 10.4758933,14.2234297 C9.81042688,15.4074844 9.47746245,17.2701484 9.47746245,19.8126328 L9.47746245,19.8126328 Z" id="bls-1" fill="#FFFFFF" sketch:type="MSShapeGroup"></path>
            <path d="M35.7779526,8.24188281 C39.2447134,8.24188281 42.0291285,9.28086719 44.1302727,11.3578672 C46.231417,13.4355937 47.2818735,16.1805469 47.2818735,19.5944219 C47.2818735,22.9932812 46.2346542,25.7244297 44.1406779,27.7873828 C42.0464704,29.8496094 39.2447134,30.8818125 35.736332,30.8818125 C32.2688775,30.8818125 29.4849249,29.8467031 27.3835494,27.7762422 C25.2826364,25.7065078 24.2319486,22.9794766 24.2319486,19.5944219 C24.2319486,16.1665 25.2856423,13.4169453 27.3941858,11.3469687 C29.5020356,9.27699219 32.2963933,8.24188281 35.7779526,8.24188281 L35.7779526,8.24188281 Z M35.7779526,11.7284141 C34.196834,11.7284141 33.0004743,12.3748125 32.1891047,13.6678516 C31.3779664,14.9608906 30.9723972,16.8567344 30.9723972,19.3541719 C30.9723972,22.1005781 31.36733,24.1344687 32.1581206,25.4560859 C32.9484486,26.7777031 34.1552134,27.4386328 35.7779526,27.4386328 C37.3724822,27.4386328 38.5619051,26.7927187 39.3457589,25.4996797 C40.128919,24.207125 40.5210771,22.2236094 40.5210771,19.5515547 C40.5210771,16.9068672 40.1326186,14.9424844 39.3559328,13.6569531 C38.579247,12.3711797 37.386587,11.7284141 35.7779526,11.7284141 L35.7779526,11.7284141 Z" id="bls-2" fill="#FFFFFF" sketch:type="MSShapeGroup"></path>
            <path d="M48.9485455,6.15010938 C48.9485455,5.04646094 48.7926996,4.32353125 48.4807767,3.98204688 C48.1686225,3.64104688 47.5685929,3.4700625 46.6813814,3.4700625 L45.4121858,3.4700625 L45.4121858,0.179945313 L55.0857273,0.179945313 L55.0857273,24.1487578 C55.0857273,25.3107734 55.2346364,26.0441172 55.5331482,26.3490313 C55.8309664,26.6546719 56.403249,26.8070078 57.2493024,26.8070078 L58.5390771,26.8070078 L58.5390771,30.1191641 L45.4121858,30.1191641 L45.4121858,26.8070078 L46.6813814,26.8070078 C47.5685929,26.8070078 48.1686225,26.6391719 48.4807767,26.3056797 C48.7926996,25.9717031 48.9485455,25.2524063 48.9485455,24.1487578 L48.9485455,6.15010938" id="bls-3" fill="#FFFFFF" sketch:type="MSShapeGroup"></path>
            <path d="M62.1510474,28.7459609 L61.5968004,30.1184375 L58.4895949,30.1196484 L58.4895949,22.2306328 L61.8183142,22.2306328 C62.2620356,23.8581328 63.0521324,25.1182344 64.1895296,26.0119062 C65.3264644,26.9048516 66.7071107,27.3516875 68.3293874,27.3516875 C69.36967,27.3516875 70.1912134,27.1448594 70.7947115,26.7304766 C71.3979783,26.3165781 71.6997273,25.76875 71.6997273,25.0857812 C71.6997273,24.0395312 70.2154921,23.1245469 67.2477154,22.3396172 C66.9149822,22.2529141 66.6516166,22.1805 66.4569249,22.1218906 C63.5719269,21.3519766 61.509166,20.4227031 60.2681798,19.3331016 C59.0269625,18.2435 58.4063538,16.8414766 58.4063538,15.1275156 C58.4063538,13.1374609 59.1936759,11.4922812 60.7676265,10.1922187 C62.3413458,8.89215625 64.3835277,8.24188281 66.8944032,8.24188281 C68.1007055,8.24188281 69.2482767,8.39833594 70.3366542,8.71075781 C71.4254941,9.02317969 72.4484348,9.49157031 73.4057075,10.1161719 L74.0503636,8.83039844 L76.9004466,8.83039844 L76.9004466,16.0207031 L74.0503636,16.0207031 C73.2454684,14.5828359 72.2958261,13.4934766 71.2002806,12.7523828 C70.104504,12.0117734 68.8910336,11.6409844 67.5601008,11.6409844 C66.6997115,11.6409844 66.0166719,11.8337656 65.5102885,12.2186016 C65.0045988,12.6034375 64.7511759,13.1229297 64.7511759,13.7768359 C64.7511759,14.8371328 66.1167925,15.7232969 68.8496443,16.4346016 C69.7232134,16.6678281 70.4027846,16.8567344 70.8881265,17.0018047 C73.5643281,17.7714766 75.4196798,18.6753203 76.4534881,19.7145469 C77.4861403,20.7528047 78.0029289,22.1509531 78.0029289,23.9085078 C78.0029289,25.9423984 77.2160692,27.6202734 75.6421186,28.9418906 C74.0679368,30.2644766 72.0465652,30.9251641 69.5777727,30.9251641 C68.3155138,30.9251641 67.0678221,30.7435234 65.8328478,30.3802422 C64.598336,30.0172031 63.3707609,29.4722812 62.1510474,28.7459609" id="bls-4" fill="#FFFFFF" sketch:type="MSShapeGroup"></path>
            <path d="M93.4917866,22.8842969 L97.6519921,22.8842969 C97.4441206,25.3834297 96.4701996,27.3478125 94.729998,28.7781719 C92.9888715,30.2097422 90.7110711,30.9251641 87.8959032,30.9251641 C84.6222154,30.9251641 82.0292549,29.9123359 80.1149407,27.8854688 C78.2015514,25.8586016 77.2442787,23.0952422 77.2442787,19.5944219 C77.2442787,16.2248672 78.2323043,13.4823359 80.208587,11.3687656 C82.185332,9.25519531 84.7473083,8.19828906 87.8959032,8.19828906 C91.0995296,8.19828906 93.5993063,9.21523438 95.3954644,11.2488828 C97.1909289,13.2830156 98.0897016,16.1376797 98.0897016,19.8126328 L98.0897016,20.2916797 L84.0677372,20.2916797 C84.0677372,22.6302422 84.4559644,24.3412969 85.2326502,25.4226641 C86.0091047,26.5052422 87.2366798,27.0460469 88.9151443,27.0460469 C90.1632984,27.0460469 91.1790711,26.6907578 91.9626937,25.9789688 C92.746085,25.2674219 93.2554743,24.2352188 93.4917866,22.8842969 L93.4917866,22.8842969 Z M84.1509783,16.9138906 L91.5985138,16.9138906 L91.5985138,16.5869375 C91.5985138,15.0333047 91.2757233,13.8347188 90.6317609,12.9923906 C89.9861798,12.1498203 89.060585,11.7284141 87.8540514,11.7284141 C86.6475178,11.7284141 85.7288597,12.1534531 85.0978458,13.0030469 C84.4661383,13.8528828 84.1509783,15.0986953 84.1509783,16.7404844 L84.1509783,16.9138906 L84.1509783,16.9138906 Z" id="bls-5" fill="#FFFFFF" sketch:type="MSShapeGroup"></path>
            <path d="M106.115069,11.7720078 C106.697757,10.6969375 107.436059,9.87277344 108.33067,9.29878906 C109.225281,8.72528906 110.19897,8.43829687 111.253589,8.43829687 C112.765109,8.43829687 113.967943,8.87035937 114.862785,9.73472656 C115.757626,10.5988516 116.204585,11.7577187 116.204585,13.2101172 C116.204585,14.4305 115.864684,15.4183828 115.185344,16.1730391 C114.505542,16.9291484 113.625036,17.3064766 112.543595,17.3064766 C111.696848,17.3064766 110.986061,17.0340156 110.411004,16.4890937 C109.835022,15.9446562 109.548071,15.2658047 109.548071,14.4520547 C109.548071,13.7259766 109.741375,13.1086406 110.130065,12.6000469 C110.51783,12.0914531 111.079708,11.7284141 111.815235,11.5106875 C111.607132,11.3796641 111.395561,11.2815781 111.180522,11.2164297 C110.965713,11.1507969 110.740269,11.1183437 110.504419,11.1183437 C109.117298,11.1183437 108.059674,11.7720078 107.331777,13.0793359 C106.603648,14.3869062 106.2397,16.2895312 106.2397,18.7884219 L106.2397,24.1487578 C106.2397,25.3107734 106.388377,26.0441172 106.686889,26.3490312 C106.984708,26.6546719 107.556759,26.8070078 108.403737,26.8070078 L110.358747,26.8070078 L110.358747,30.1191641 L96.7740296,30.1191641 L96.7740296,26.8070078 L97.8353538,26.8070078 C98.722334,26.8070078 99.3225949,26.6391719 99.6345178,26.3056797 C99.9466719,25.9717031 100.102518,25.2524062 100.102518,24.1487578 L100.102518,15.0408125 C100.102518,13.9219062 99.9466719,13.1958281 99.6345178,12.861125 C99.3225949,12.5273906 98.722334,12.3602812 97.8353538,12.3602812 L96.7740296,12.3602812 L96.7740296,9.04836719 L106.115069,9.04836719 L106.115069,11.7720078" id="bls-6" fill="#FFFFFF" sketch:type="MSShapeGroup"></path>
            <path d="M116.837911,28.0397422 C116.837911,29.4446719 115.750921,30.5834375 114.409352,30.5834375 C113.068014,30.5834375 111.980792,29.4446719 111.980792,28.0397422 C111.980792,26.6348125 113.068014,25.4958047 114.409352,25.4958047 C115.750921,25.4958047 116.837911,26.6348125 116.837911,28.0397422" id="bls-7" fill="#411244" sketch:type="MSShapeGroup"></path>
        </g>
    </g>
</svg>