<?xml version="1.0" encoding="UTF-8" standalone="no"?>
<svg width="38px" height="38px" viewBox="0 0 38 38" version="1.1" xmlns="http://www.w3.org/2000/svg" xmlns:xlink="http://www.w3.org/1999/xlink" xmlns:sketch="http://www.bohemiancoding.com/sketch/ns">
    <!-- Generator: Sketch 3.2.2 (9983) - http://www.bohemiancoding.com/sketch -->
    <title>btn-tel</title>
    <desc>Created with Sketch.</desc>
    <defs></defs>
    <g id="Page-1" stroke="none" stroke-width="1" fill="none" fill-rule="evenodd" sketch:type="MSPage">
        <g id="btn-tel" sketch:type="MSArtboardGroup" fill="#FFFFFF">
            <path d="M23.6524717,35.9929055 C21.0268338,35.9742826 18.7520042,35.3727313 16.5803476,34.3597011 C14.1241867,33.2139454 11.9673983,31.6461678 9.98912836,29.8310692 C8.18013453,28.1714577 6.55126653,26.3591181 5.18982463,24.3241897 C3.94682576,22.4663274 2.97286035,20.4875635 2.44373442,18.3162638 C1.5730425,14.7424283 2.04581003,11.3601433 3.99785974,8.20665472 C5.36291822,6.00145928 8.33815903,5.66082655 10.2057214,7.47720603 C10.7168649,7.97431107 11.2375521,8.46304072 11.727197,8.97995114 C12.8860099,10.2031547 13.1114435,11.9586401 12.2960049,13.4318249 C11.8462428,14.2443379 11.4730317,15.0815831 11.2947142,15.9919406 C10.8068776,18.4816042 11.28507,20.7969609 12.7049799,22.9003705 C14.2518721,25.1919805 16.4561783,26.5367752 19.2143238,26.9677638 C21.197014,27.2775554 23.0979293,26.9823469 24.8644283,26.0095187 C25.9724081,25.399395 27.1293122,25.2565204 28.3118338,25.7228827 C28.7672217,25.9024121 29.2041248,26.1824463 29.5749248,26.5004161 C30.1719621,27.0123998 30.7284133,27.5748331 31.2646719,28.1494845 C32.9613508,29.9678347 32.4986294,32.8306474 30.335311,34.0895204 C28.5972424,35.1009739 26.7371141,35.7404609 24.7234821,35.9335879 C24.2995384,35.974184 23.872179,35.9812785 23.6524717,35.9929055 L23.6524717,35.9929055 Z M23.4814878,34.1985977 C24.1454318,34.1261751 24.8142984,34.082623 25.4724157,33.9754178 C26.8829829,33.7455375 28.1910802,33.2306963 29.4048451,32.4947443 C30.610774,31.7636205 30.7783422,30.2507264 29.7776543,29.2670594 C29.3401484,28.8369577 28.9017384,28.4077427 28.4637303,27.9781336 C27.6904851,27.2199129 26.7732799,27.0775309 25.8105661,27.5969047 C23.6171096,28.7803005 21.2782866,29.1753241 18.8247376,28.7534007 C14.8820614,28.0754853 12.0124046,25.9516792 10.2975424,22.3988314 C9.2424048,20.2127516 8.98703398,17.9080366 9.4881314,15.5314902 C9.71376588,14.4613103 10.1503676,13.473702 10.6741691,12.5137818 C11.1102685,11.7144723 10.9437049,10.7971189 10.2944281,10.1576319 C9.82186148,9.69225489 9.34829026,9.22776466 8.8738149,8.76425977 C7.90296376,7.81557248 6.35697575,7.96347231 5.63144938,9.10824267 C4.17065195,11.4129577 3.6535813,13.9241018 4.03040897,16.6079764 C4.34243956,18.8307109 5.2085103,20.8540122 6.39404571,22.7556238 C7.64186669,24.7572476 9.17991831,26.5264292 10.8999041,28.1489919 C12.8478349,29.9866547 14.9814169,31.5692125 17.43587,32.7073811 C19.3480368,33.5939919 21.3455952,34.1450936 23.4814878,34.1985977 L23.4814878,34.1985977 Z" id="btn-phone-icon" sketch:type="MSShapeGroup"></path>
            <path d="M17.6705518,14.8385947 C20.8339553,14.9515149 23.4010248,17.2126778 23.8458643,20.2849742 C23.8857471,20.5600817 23.9030263,20.8409042 23.9002134,21.1187706 C23.894889,21.6370605 23.512536,22.0196688 23.0119409,22.0337592 C22.4819108,22.0486379 22.0763514,21.707414 22.0521404,21.1731615 C22.0126594,20.3039913 21.8233917,19.482019 21.3312352,18.7487275 C20.4390448,17.419304 19.1694238,16.7409946 17.5538166,16.6629555 C16.9188052,16.6322128 16.5323334,16.243791 16.5674946,15.6971232 C16.6024549,15.1529188 17.0355405,14.8159319 17.6705518,14.8385947" id="btn-phone-1" sketch:type="MSShapeGroup"></path>
            <path d="M18.6746613,8.83096145 C21.3919194,8.99975054 23.7947357,9.88015364 25.8493557,11.6051919 C28.1946082,13.5742009 29.5367616,16.0818963 29.8921912,19.0913279 C29.9363938,19.4650681 29.9481477,19.8439321 29.9522666,20.2206284 C29.9585956,20.7881854 29.5550455,21.2044924 29.0227048,21.2031129 C28.4892591,21.2017334 28.1049973,20.7917326 28.0930425,20.2188548 C28.0414058,17.7465331 27.1909064,15.5773027 25.4630847,13.7725502 C23.567092,11.7921113 21.2126977,10.7818401 18.4398849,10.7212416 C17.9163848,10.7098116 17.5723073,10.4820005 17.4429141,10.0564313 C17.3298959,9.68485885 17.453362,9.24894354 17.8048736,9.06744354 C18.064966,8.93314142 18.3826224,8.90594598 18.6746613,8.83096145" id="btn-phone-2" sketch:type="MSShapeGroup"></path>
            <path d="M19.840211,3.03527524 C24.1729758,3.21697231 27.9028765,4.75243078 30.9819936,7.72116775 C33.4812521,10.1306246 35.0553691,13.0475326 35.6417575,16.4458787 C35.796065,17.3397809 35.8380575,18.2540798 35.8982334,19.1611857 C35.9364084,19.7355415 35.5322555,20.1451482 34.9901702,20.1515529 C34.4365319,20.1581547 34.0525715,19.7793893 34.0446351,19.1940961 C34.0012361,16.0078941 33.0381204,13.1207435 31.0659786,10.5857541 C28.7385077,7.59405863 25.6661215,5.75600163 21.8897075,5.08853094 C21.0709537,4.9437842 20.2271852,4.93077769 19.3937641,4.87244544 C18.8827211,4.83667752 18.5052907,4.51663844 18.4614899,4.04446254 C18.4182918,3.57928257 18.7037004,3.16051221 19.1589877,3.07183143 C19.3858278,3.02768811 19.6251249,3.0449316 19.840211,3.03527524" id="btn-phone-3" sketch:type="MSShapeGroup"></path>
        </g>
    </g>
</svg>