<?xml version="1.0" encoding="UTF-8" standalone="no"?>
<svg width="38px" height="38px" viewBox="0 0 38 38" version="1.1" xmlns="http://www.w3.org/2000/svg" xmlns:xlink="http://www.w3.org/1999/xlink" xmlns:sketch="http://www.bohemiancoding.com/sketch/ns">
    <!-- Generator: Sketch 3.2.2 (9983) - http://www.bohemiancoding.com/sketch -->
    <title>btn-email</title>
    <desc>Created with Sketch.</desc>
    <defs></defs>
    <g id="Page-1" stroke="none" stroke-width="1" fill="none" fill-rule="evenodd" sketch:type="MSPage">
        <g id="btn-email" sketch:type="MSArtboardGroup" fill="#FFFFFF">
            <path d="M19.0089712,8.06678445 C24.3861729,8.06678445 29.7633747,8.06671025 35.1405765,8.06693286 C35.5779024,8.06693286 35.8486962,8.24487633 35.938408,8.59727562 C35.9593659,8.67971731 35.962306,8.76831802 35.9623814,8.85402473 C35.9633614,15.2845512 35.9634368,21.7150777 35.9630599,28.14553 C35.9630599,28.6600671 35.6854058,28.9329929 35.1598758,28.9329929 C24.3867007,28.9334382 13.6134501,28.9334382 2.84027494,28.9330671 C2.31474501,28.9329929 2.03694013,28.6601413 2.03694013,28.1459753 C2.03656319,21.715523 2.03656319,15.2850707 2.03694013,8.85454417 C2.03694013,8.33340283 2.31527273,8.06700707 2.85859424,8.06693286 C8.24205322,8.06663604 13.6255122,8.06678445 19.0089712,8.06678445 L19.0089712,8.06678445 Z M3.46509091,27.5340813 L34.5465942,27.5340813 L34.5465942,27.325788 C34.5465942,21.4395548 34.5459157,15.5533958 34.5500621,9.66723675 C34.5501375,9.49923675 34.506714,9.45063251 34.3311353,9.45070671 C24.111082,9.4550106 13.8910288,9.45456537 3.67097561,9.45456537 L3.46509091,9.45456537 L3.46509091,27.5340813 L3.46509091,27.5340813 Z" id="btn-email-outer" sketch:type="MSShapeGroup"></path>
            <path d="M19.006031,20.5090247 C19.5467894,20.0888021 20.0834013,19.6721413 20.6197118,19.2551837 C24.1480976,16.5120495 27.676408,13.7687668 31.2049446,11.0257809 C31.6303592,10.6951237 32.1361375,10.7742261 32.3541596,11.2037244 C32.5132284,11.5172403 32.427286,11.8516078 32.1190244,12.0922544 C31.499184,12.5761449 30.877082,13.0572898 30.2561863,13.5399187 C27.8167805,15.4362261 25.3775255,17.3327562 22.9384213,19.2292862 C22.9102262,19.2511767 22.8840665,19.2755901 22.8415477,19.3120989 C23.1032195,19.4610283 23.3516231,19.6032792 23.6008559,19.7441201 C26.3921729,21.3219399 29.1836408,22.8993887 31.9749579,24.4772085 C32.3477517,24.6878763 32.5013171,24.9972367 32.4007494,25.3319011 C32.2612062,25.7961272 31.7682439,25.9719929 31.3075477,25.7142792 C30.5820133,25.3083781 29.8600222,24.8965406 29.1364479,24.4873746 C26.6772905,23.0968481 24.2182084,21.7063958 21.7589756,20.3160919 C21.7210554,20.2946466 21.6821552,20.2749823 21.6296098,20.2470071 C21.1353659,20.6307208 20.6385588,21.0159187 20.142204,21.4018587 C19.9204878,21.5742367 19.7006563,21.7489894 19.4784878,21.9207739 C19.158918,22.1678021 18.8361818,22.1660954 18.5178182,21.9178799 C17.8044213,21.3615654 17.090949,20.8051767 16.3709933,20.243742 C15.7081818,20.6179576 15.0500443,20.9892049 14.3922084,21.3611201 C11.8294678,22.8099717 9.26702882,24.2592686 6.70406208,25.7076749 C6.35350776,25.9057279 6.02217738,25.8755265 5.77256763,25.6277562 C5.55469623,25.4114488 5.49385809,25.0681025 5.66596896,24.8103145 C5.75470067,24.6773392 5.89273614,24.5603922 6.03423947,24.4799541 C8.20217295,23.2472615 10.3744035,22.0219894 12.5455033,20.7947138 C13.3617295,20.3333816 14.1775787,19.87153 14.9935033,19.4096784 C15.0464257,19.3796996 15.0980665,19.3474205 15.164031,19.3080919 C14.4172373,18.7269929 13.6886874,18.1596219 12.9596098,17.5929187 C10.6087849,15.7657703 8.25863858,13.9379541 5.90585366,12.1132544 C5.65647007,11.9198021 5.52544568,11.6830883 5.58733925,11.372689 C5.64290022,11.0944947 5.82232373,10.912841 6.10344568,10.8401201 C6.36202661,10.7732615 6.58065188,10.8560742 6.78472727,11.0152438 C8.13839468,12.070735 9.49462528,13.1229611 10.8497251,14.176523 C13.5205721,16.2530742 16.1911929,18.3299223 18.8621153,20.4063251 C18.9056896,20.4402367 18.9520532,20.4706608 19.006031,20.5090247" id="btn-email-inner" sketch:type="MSShapeGroup"></path>
        </g>
    </g>
</svg>